<svg width="40" height="40" viewBox="0 0 40 40" fill="none" xmlns="http://www.w3.org/2000/svg">
<path d="M20 37.5C10.335 37.5 2.5 29.665 2.5 20C2.5 10.335 10.335 2.5 20 2.5C29.665 2.5 37.5 10.335 37.5 20C37.5 29.665 29.665 37.5 20 37.5ZM20 40C31.0457 40 40 31.0457 40 20C40 8.95431 31.0457 0 20 0C8.95431 0 0 8.95431 0 20C0 31.0457 8.95431 40 20 40Z" fill="#001A49"/>
<path d="M10.712 23.918C11.3096 23.5723 12.0742 23.7765 12.4199 24.3741C13.9347 26.9927 16.7629 28.75 20.0001 28.75C23.2372 28.75 26.0654 26.9927 27.5802 24.3741C27.9259 23.7765 28.6906 23.5723 29.2882 23.918C29.8857 24.2637 30.0899 25.0283 29.7443 25.6259C27.801 28.9853 24.1657 31.25 20.0001 31.25C15.8344 31.25 12.1992 28.9853 10.2559 25.6259C9.9102 25.0283 10.1144 24.2637 10.712 23.918Z" fill="#001A49"/>
<path d="M17.5 16.25C17.5 18.3211 16.3807 20 15 20C13.6193 20 12.5 18.3211 12.5 16.25C12.5 14.1789 13.6193 12.5 15 12.5C16.3807 12.5 17.5 14.1789 17.5 16.25Z" fill="#001A49"/>
<path d="M27.5 16.25C27.5 18.3211 26.3807 20 25 20C23.6193 20 22.5 18.3211 22.5 16.25C22.5 14.1789 23.6193 12.5 25 12.5C26.3807 12.5 27.5 14.1789 27.5 16.25Z" fill="#001A49"/>
</svg>
