<svg width="30" height="30" viewBox="0 0 30 30" fill="none" xmlns="http://www.w3.org/2000/svg">
<path fill-rule="evenodd" clip-rule="evenodd" d="M21.7076 15C21.7076 18.68 18.7045 21.6632 15 21.6632C11.2955 21.6632 8.29243 18.68 8.29243 15C8.29243 11.32 11.2955 8.33682 15 8.33682C18.7045 8.33682 21.7076 11.32 21.7076 15ZM20.0307 15C20.0307 17.76 17.7784 19.9974 15 19.9974C12.2216 19.9974 9.96932 17.76 9.96932 15C9.96932 12.24 12.2216 10.0026 15 10.0026C17.7784 10.0026 20.0307 12.24 20.0307 15Z" fill="#FAFAFA"/>
<path fill-rule="evenodd" clip-rule="evenodd" d="M12.5377 1.71682C13.7519 0.0527272 16.2481 0.0527276 17.4623 1.71682C18.237 2.77856 19.6127 3.2226 20.8676 2.81596C22.8346 2.17862 24.8541 3.63619 24.8517 5.6914C24.8502 7.00269 25.7004 8.16521 26.9563 8.56899C28.9247 9.20184 29.6961 11.5602 28.4781 13.2216C27.701 14.2815 27.701 15.7185 28.4781 16.7784C29.6961 18.4398 28.9247 20.7982 26.9563 21.431C25.7004 21.8348 24.8502 22.9973 24.8517 24.3086C24.8541 26.3638 22.8346 27.8214 20.8676 27.184C19.6127 26.7774 18.237 27.2214 17.4623 28.2832C16.2481 29.9473 13.7519 29.9473 12.5377 28.2832C11.763 27.2214 10.3873 26.7774 9.13236 27.184C7.16545 27.8214 5.14591 26.3638 5.14829 24.3086C5.1498 22.9973 4.29956 21.8348 3.04367 21.431C1.07529 20.7982 0.303896 18.4398 1.52189 16.7784C2.29901 15.7185 2.29901 14.2815 1.52189 13.2216C0.303896 11.5602 1.07529 9.20184 3.04367 8.56899C4.29956 8.16521 5.1498 7.00269 5.14829 5.6914C5.14591 3.63619 7.16545 2.17862 9.13236 2.81596C10.3873 3.2226 11.763 2.77856 12.5377 1.71682ZM8.61234 4.39963C10.5593 5.03051 12.6936 4.34161 13.8955 2.6944C14.4401 1.94793 15.5599 1.94793 16.1045 2.6944C17.3064 4.34161 19.4407 5.03051 21.3877 4.39963C22.27 4.11373 23.1759 4.76757 23.1748 5.68949C23.1725 7.72385 24.4916 9.52741 26.44 10.1538C27.3229 10.4377 27.669 11.4956 27.1226 12.2409C25.917 13.8853 25.917 16.1147 27.1226 17.7591C27.669 18.5043 27.3229 19.5623 26.44 19.8462C24.4916 20.4726 23.1725 22.2761 23.1748 24.3105C23.1759 25.2324 22.27 25.8863 21.3877 25.6004C19.4407 24.9695 17.3064 25.6584 16.1045 27.3056C15.5599 28.0521 14.4401 28.0521 13.8955 27.3056C12.6936 25.6584 10.5593 24.9695 8.61234 25.6004C7.73003 25.8863 6.82412 25.2324 6.82518 24.3105C6.82753 22.2761 5.50844 20.4726 3.56003 19.8462C2.67706 19.5623 2.33103 18.5043 2.87739 17.7591C4.08303 16.1147 4.08303 13.8853 2.87739 12.2409C2.33103 11.4956 2.67706 10.4377 3.56003 10.1538C5.50844 9.52741 6.82753 7.72385 6.82518 5.68949C6.82412 4.76757 7.73003 4.11373 8.61234 4.39963Z" fill="#FAFAFA"/>
</svg>
