<svg width="30" height="30" viewBox="0 0 30 30" fill="none" xmlns="http://www.w3.org/2000/svg">
<path fill-rule="evenodd" clip-rule="evenodd" d="M10.6406 7.67574C10.6406 10.1027 8.68887 12.0702 6.28125 12.0702C3.87363 12.0702 1.92188 10.1027 1.92188 7.67574C1.92188 5.24873 3.87363 3.28125 6.28125 3.28125C8.68887 3.28125 10.6406 5.24873 10.6406 7.67574ZM9.1875 7.67574C9.1875 9.29374 7.88633 10.6054 6.28125 10.6054C4.67617 10.6054 3.375 9.29374 3.375 7.67574C3.375 6.05773 4.67617 4.74608 6.28125 4.74608C7.88633 4.74608 9.1875 6.05773 9.1875 7.67574Z" fill="#FAFAFA"/>
<path fill-rule="evenodd" clip-rule="evenodd" d="M23.7188 12.0702C26.1264 12.0702 28.0781 10.1027 28.0781 7.67574C28.0781 5.24873 26.1264 3.28125 23.7188 3.28125C21.3111 3.28125 19.3594 5.24873 19.3594 7.67574C19.3594 10.1027 21.3111 12.0702 23.7188 12.0702ZM23.7188 10.6054C25.3238 10.6054 26.625 9.29374 26.625 7.67574C26.625 6.05773 25.3238 4.74608 23.7188 4.74608C22.1137 4.74608 20.8125 6.05773 20.8125 7.67574C20.8125 9.29374 22.1137 10.6054 23.7188 10.6054Z" fill="#FAFAFA"/>
<path fill-rule="evenodd" clip-rule="evenodd" d="M19.3594 14.9999C19.3594 17.4269 17.4076 19.3944 15 19.3944C12.5924 19.3944 10.6406 17.4269 10.6406 14.9999C10.6406 12.5729 12.5924 10.6054 15 10.6054C17.4076 10.6054 19.3594 12.5729 19.3594 14.9999ZM17.9062 14.9999C17.9062 16.6179 16.6051 17.9295 15 17.9295C13.3949 17.9295 12.0938 16.6179 12.0938 14.9999C12.0938 13.3819 13.3949 12.0702 15 12.0702C16.6051 12.0702 17.9062 13.3819 17.9062 14.9999Z" fill="#FAFAFA"/>
<path d="M15 20.8592C12.4265 20.8592 10.5911 21.2218 9.39594 22.0981C8.13399 23.0233 7.73441 24.3997 7.73438 25.9863C7.73437 26.3908 8.05965 26.7187 8.46092 26.7187C8.86219 26.7187 9.18749 26.3908 9.1875 25.9863C9.18753 24.6434 9.51457 23.8224 10.2507 23.2827C11.0536 22.694 12.4877 22.324 15 22.324C17.5124 22.324 18.9465 22.694 19.7494 23.2827C20.4855 23.8224 20.8125 24.6434 20.8125 25.9863C20.8125 26.3908 21.1378 26.7188 21.5391 26.7188C21.9403 26.7188 22.2656 26.3908 22.2656 25.9863C22.2656 24.3997 21.8661 23.0233 20.6041 22.098C19.409 21.2218 17.5736 20.8592 15 20.8592Z" fill="#FAFAFA"/>
<path d="M26.8308 15.322C25.9759 15.0086 24.8441 14.9999 23.7188 14.9999C22.7675 14.9999 21.7979 15.0039 20.9872 15.2064C20.5977 15.3036 20.2038 15.0642 20.1073 14.6716C20.0108 14.2789 20.2483 13.8818 20.6378 13.7845C21.6369 13.535 22.7732 13.535 23.6764 13.5351L23.7817 13.535C24.8288 13.5348 26.2069 13.5346 27.3274 13.9453C27.9183 14.1619 28.4836 14.5073 28.8978 15.064C29.3158 15.6258 29.5312 16.3378 29.5312 17.1971C29.5312 17.6016 29.206 17.9295 28.8047 17.9295C28.4034 17.9295 28.0781 17.6016 28.0781 17.1971C28.0781 16.5916 27.9303 16.205 27.7353 15.9429C27.5364 15.6755 27.239 15.4716 26.8308 15.322Z" fill="#FAFAFA"/>
<path d="M6.21805 13.3071C5.17098 13.3069 3.79302 13.3067 2.6726 13.7174C2.08175 13.934 1.51637 14.2794 1.10222 14.836C0.684187 15.3979 0.46875 16.1098 0.46875 16.9692C0.46875 17.3737 0.794043 17.7016 1.19531 17.7016C1.59658 17.7016 1.92188 17.3737 1.92188 16.9692C1.92188 16.3637 2.06972 15.977 2.26472 15.7149C2.46361 15.4476 2.76102 15.2436 3.1692 15.094C4.02414 14.7806 5.15592 14.7719 6.28125 14.7719C7.23247 14.7719 8.20213 14.7759 9.01277 14.9784C9.40226 15.0757 9.79624 14.8362 9.89274 14.4436C9.98924 14.051 9.75173 13.6538 9.36223 13.5565C8.36287 13.3069 7.2263 13.307 6.32298 13.3071L6.21805 13.3071Z" fill="#FAFAFA"/>
</svg>
