<svg width="30" height="30" viewBox="0 0 30 30" fill="none" xmlns="http://www.w3.org/2000/svg">
<path fill-rule="evenodd" clip-rule="evenodd" d="M15 16.4531C18.2102 16.4531 20.8125 13.8508 20.8125 10.6406C20.8125 7.43047 18.2102 4.82812 15 4.82812C11.7898 4.82812 9.1875 7.43047 9.1875 10.6406C9.1875 13.8508 11.7898 16.4531 15 16.4531ZM15 15C17.4076 15 19.3594 13.0482 19.3594 10.6406C19.3594 8.23301 17.4076 6.28125 15 6.28125C12.5924 6.28125 10.6406 8.23301 10.6406 10.6406C10.6406 13.0482 12.5924 15 15 15Z" fill="#FAFAFA"/>
<path d="M15 17.9062C13.6119 17.9062 11.5162 18.1306 9.73929 18.8284C7.98947 19.5156 6.28125 20.7855 6.28125 22.9922C6.28125 23.3935 6.60654 23.7188 7.00781 23.7188C7.40908 23.7188 7.73438 23.3935 7.73438 22.9922C7.73438 21.7113 8.69022 20.8016 10.2705 20.181C11.8236 19.571 13.7241 19.3594 15 19.3594C16.2759 19.3594 18.1764 19.571 19.7295 20.181C21.3098 20.8016 22.2656 21.7113 22.2656 22.9922C22.2656 23.3935 22.5909 23.7188 22.9922 23.7188C23.3935 23.7188 23.7188 23.3935 23.7188 22.9922C23.7188 20.7855 22.0105 19.5156 20.2607 18.8284C18.4838 18.1306 16.3881 17.9062 15 17.9062Z" fill="#FAFAFA"/>
<path fill-rule="evenodd" clip-rule="evenodd" d="M15 29.5312C23.0254 29.5312 29.5312 23.0254 29.5312 15C29.5312 6.97461 23.0254 0.46875 15 0.46875C6.97461 0.46875 0.46875 6.97461 0.46875 15C0.46875 23.0254 6.97461 29.5312 15 29.5312ZM15 28.0781C22.2228 28.0781 28.0781 22.2228 28.0781 15C28.0781 7.77715 22.2228 1.92188 15 1.92188C7.77715 1.92188 1.92188 7.77715 1.92188 15C1.92188 22.2228 7.77715 28.0781 15 28.0781Z" fill="#FAFAFA"/>
</svg>
