<svg width="30" height="30" viewBox="0 0 30 30" fill="none" xmlns="http://www.w3.org/2000/svg">
<path d="M15.7266 8.46094C15.7266 8.05967 15.4013 7.73438 15 7.73438C14.5987 7.73438 14.2734 8.05967 14.2734 8.46094V14.2734H8.46094C8.05967 14.2734 7.73438 14.5987 7.73438 15C7.73438 15.4013 8.05967 15.7266 8.46094 15.7266H14.2734V21.5391C14.2734 21.9403 14.5987 22.2656 15 22.2656C15.4013 22.2656 15.7266 21.9403 15.7266 21.5391V15.7266H21.5391C21.9403 15.7266 22.2656 15.4013 22.2656 15C22.2656 14.5987 21.9403 14.2734 21.5391 14.2734H15.7266V8.46094Z" fill="#FAFAFA"/>
<path fill-rule="evenodd" clip-rule="evenodd" d="M29.5312 15C29.5312 23.0254 23.0254 29.5312 15 29.5312C6.97461 29.5312 0.46875 23.0254 0.46875 15C0.46875 6.97461 6.97461 0.46875 15 0.46875C23.0254 0.46875 29.5312 6.97461 29.5312 15ZM28.0781 15C28.0781 22.2228 22.2228 28.0781 15 28.0781C7.77715 28.0781 1.92188 22.2228 1.92188 15C1.92188 7.77715 7.77715 1.92188 15 1.92188C22.2228 1.92188 28.0781 7.77715 28.0781 15Z" fill="#FAFAFA"/>
</svg>
