<svg width="145" height="83" viewBox="0 0 145 83" fill="none" xmlns="http://www.w3.org/2000/svg">
<path d="M25.1368 29.42V75.7507C25.1368 78.2884 28.2719 79.4828 29.9605 77.5884L38.2642 68.2725C38.9338 67.5213 39.8923 67.0917 40.8987 67.0917L76.5557 67.0917C81.1318 67.0917 84.8414 63.382 84.8414 58.806V29.42C84.8414 24.8439 81.1318 21.1343 76.5557 21.1343L33.4226 21.1343C28.8465 21.1343 25.1368 24.8439 25.1368 29.42Z" fill="#FAFAFA" stroke="#FAFAFA" stroke-width="3.5291"/>
<path d="M70.6671 33.4965V58.3597C70.6671 59.7215 68.9847 60.3625 68.0785 59.3459L63.6224 54.3466C63.263 53.9434 62.7487 53.7129 62.2086 53.7129L43.0734 53.7129C40.6177 53.7129 38.6269 51.7221 38.6269 49.2664V33.4965C38.6269 31.0408 40.6177 29.05 43.0734 29.05L66.2206 29.05C68.6764 29.05 70.6671 31.0408 70.6671 33.4965Z" fill="#001A49" stroke="#001A49" stroke-width="1.89388"/>
<path d="M6.49845 19.0273C9.84063 19.0273 12.55 21.7367 12.55 25.0788V62.7758C12.55 66.1179 9.84063 68.8273 6.49845 68.8273C3.15627 68.8273 0.446899 66.1179 0.446899 62.7757V25.0788C0.446899 21.7367 3.15627 19.0273 6.49845 19.0273Z" fill="#FAFAFA"/>
<path d="M145 42.3909C145 45.1023 142.666 47.0721 139.955 47.0721H111.142C110.334 47.0721 109.692 47.7646 109.83 48.5606C110.308 51.3263 111.455 53.5463 113.273 55.2208C115.405 57.1858 118.027 58.1682 121.14 58.1682C124.084 58.1682 126.472 57.3376 128.304 55.6762C130.18 53.9752 132.34 52.3601 134.872 52.3601C139.318 52.3601 142.472 56.76 139.629 60.1786C138.535 61.4951 137.27 62.7033 135.836 63.803C131.917 66.7505 127.105 68.2242 121.399 68.2242C116.788 68.2242 112.639 67.2128 108.95 65.19C105.319 63.1095 102.466 60.191 100.391 56.4345C98.3742 52.678 97.3656 48.3435 97.3656 43.4311C97.3656 38.461 98.3742 34.0976 100.391 30.3411C102.409 26.5846 105.233 23.695 108.864 21.6722C112.494 19.6495 116.673 18.6381 121.399 18.6381C125.952 18.6381 130.015 19.6206 133.588 21.5855C137.219 23.5505 140.015 26.3534 141.974 29.9944C143.991 33.5775 145 37.7097 145 42.3909ZM131.058 38.9233C131.831 38.9233 132.463 38.287 132.361 37.5211C132.034 35.0491 130.944 33.0314 129.093 31.4681C126.903 29.5609 124.223 28.6073 121.053 28.6073C118.056 28.6073 115.52 29.532 113.445 31.3814C111.766 32.8733 110.625 34.8661 110.025 37.3598C109.828 38.1766 110.48 38.9233 111.32 38.9233H131.058ZM124.399 10.3883C122.431 9.26806 120.019 9.26457 118.047 10.3791L114.062 12.6322C111.508 14.0761 108.345 12.2309 108.345 9.29691C108.345 7.89448 109.111 6.60412 110.342 5.93288L117.247 2.16912C119.726 0.817526 122.723 0.821773 125.199 2.1804L132.036 5.93254C133.26 6.60429 134.021 7.88961 134.021 9.28585C134.021 12.2199 130.854 14.0616 128.304 12.6103L124.399 10.3883Z" fill="#FAFAFA"/>
<ellipse cx="6.89767" cy="7.96063" rx="6.89767" ry="6.91667" fill="#0067F4"/>
</svg>
