<svg width="40" height="40" viewBox="0 0 40 40" fill="none" xmlns="http://www.w3.org/2000/svg">
<path d="M8.75 16.25C9.44036 16.25 10 16.8096 10 17.5V20C10 25.5228 14.4772 30 20 30C25.5228 30 30 25.5228 30 20V17.5C30 16.8096 30.5596 16.25 31.25 16.25C31.9404 16.25 32.5 16.8096 32.5 17.5V20C32.5 26.4817 27.5667 31.8111 21.25 32.4383V37.5H28.75C29.4404 37.5 30 38.0596 30 38.75C30 39.4404 29.4404 40 28.75 40H11.25C10.5596 40 10 39.4404 10 38.75C10 38.0596 10.5596 37.5 11.25 37.5H18.75V32.4383C12.4333 31.8111 7.5 26.4817 7.5 20V17.5C7.5 16.8096 8.05964 16.25 8.75 16.25Z" fill="#001A49"/>
<path d="M25 20C25 22.7614 22.7614 25 20 25C17.2386 25 15 22.7614 15 20V7.5C15 4.73858 17.2386 2.5 20 2.5C22.7614 2.5 25 4.73858 25 7.5V20ZM20 0C15.8579 0 12.5 3.35786 12.5 7.5V20C12.5 24.1421 15.8579 27.5 20 27.5C24.1421 27.5 27.5 24.1421 27.5 20V7.5C27.5 3.35786 24.1421 0 20 0Z" fill="#001A49"/>
</svg>
