<svg width="40" height="40" viewBox="0 0 40 40" fill="none" xmlns="http://www.w3.org/2000/svg">
<path d="M23.75 32.5C23.75 34.5711 22.0711 36.25 20 36.25C17.9289 36.25 16.25 34.5711 16.25 32.5C16.25 30.4289 17.9289 28.75 20 28.75C22.0711 28.75 23.75 30.4289 23.75 32.5ZM23.75 20C23.75 22.0711 22.0711 23.75 20 23.75C17.9289 23.75 16.25 22.0711 16.25 20C16.25 17.9289 17.9289 16.25 20 16.25C22.0711 16.25 23.75 17.9289 23.75 20ZM23.75 7.5C23.75 9.57107 22.0711 11.25 20 11.25C17.9289 11.25 16.25 9.57107 16.25 7.5C16.25 5.42893 17.9289 3.75 20 3.75C22.0711 3.75 23.75 5.42893 23.75 7.5Z" fill="#001A49"/>
</svg>
