<svg width="30" height="30" viewBox="0 0 30 30" fill="none" xmlns="http://www.w3.org/2000/svg">
<path fill-rule="evenodd" clip-rule="evenodd" d="M20.651 5.7854V2.89062C20.651 1.55306 21.7354 0.46875 23.0729 0.46875H23.8802C25.2178 0.46875 26.3021 1.55306 26.3021 2.89062V11.4364L29.2948 14.4292C29.6101 14.7444 29.6101 15.2556 29.2948 15.5708C28.9795 15.8861 28.4684 15.8861 28.1531 15.5708L15.5708 2.98857C15.2556 2.6733 14.7444 2.6733 14.4292 2.98857L1.84688 15.5708C1.53162 15.8861 1.02047 15.8861 0.7052 15.5708C0.389933 15.2556 0.389933 14.7444 0.7052 14.4292L13.2875 1.84688C14.2333 0.901082 15.7667 0.901082 16.7125 1.84688L20.651 5.7854ZM22.2656 2.89062C22.2656 2.44477 22.6271 2.08333 23.0729 2.08333H23.8802C24.3261 2.08333 24.6875 2.44477 24.6875 2.89062V9.82186L22.2656 7.39998V2.89062Z" fill="#FAFAFA"/>
<path d="M5.3125 15V27.1094C5.3125 27.5552 5.67394 27.9167 6.11979 27.9167H23.8802C24.3261 27.9167 24.6875 27.5552 24.6875 27.1094V15C24.6875 14.5541 25.0489 14.1927 25.4948 14.1927C25.9406 14.1927 26.3021 14.5541 26.3021 15V27.1094C26.3021 28.4469 25.2178 29.5312 23.8802 29.5312H6.11979C4.78223 29.5312 3.69792 28.4469 3.69792 27.1094V15C3.69792 14.5541 4.05935 14.1927 4.50521 14.1927C4.95106 14.1927 5.3125 14.5541 5.3125 15Z" fill="#FAFAFA"/>
</svg>
