<svg width="40" height="40" viewBox="0 0 40 40" fill="none" xmlns="http://www.w3.org/2000/svg">
<path d="M20 37.5C10.335 37.5 2.5 29.665 2.5 20C2.5 10.335 10.335 2.5 20 2.5C29.665 2.5 37.5 10.335 37.5 20C37.5 29.665 29.665 37.5 20 37.5ZM20 40C31.0457 40 40 31.0457 40 20C40 8.95431 31.0457 0 20 0C8.95431 0 0 8.95431 0 20C0 31.0457 8.95431 40 20 40Z" fill="#001A49"/>
<path d="M20 10C20.6904 10 21.25 10.5596 21.25 11.25V18.75H28.75C29.4404 18.75 30 19.3096 30 20C30 20.6904 29.4404 21.25 28.75 21.25H21.25V28.75C21.25 29.4404 20.6904 30 20 30C19.3096 30 18.75 29.4404 18.75 28.75V21.25H11.25C10.5596 21.25 10 20.6904 10 20C10 19.3096 10.5596 18.75 11.25 18.75H18.75V11.25C18.75 10.5596 19.3096 10 20 10Z" fill="#001A49"/>
</svg>
